<svg xmlns="http://www.w3.org/2000/svg" viewBox="0 0 32 32">
  <circle cx="16" cy="16" r="16" fill="#3e4f26"/>
  <g transform="translate(7 7)" fill="none" stroke="#f9f8f4" stroke-width="1.6" stroke-linecap="round" stroke-linejoin="round">
    <path d="M2 16 16 2"/>
    <path d="M3.5 11.5 5 10l1.5 1.5a3 3 0 0 1 0 4L5 17l-1.5-1.5a3 3 0 0 1 0-4Z"/>
    <path d="M7.5 7.5 9 6l1.5 1.5a3 3 0 0 1 0 4L9 13l-1.5-1.5a3 3 0 0 1 0-4Z"/>
    <path d="M11.5 3.5 13 2l1.5 1.5a3 3 0 0 1 0 4L13 9l-1.5-1.5a3 3 0 0 1 0-4Z"/>
  </g>
</svg>
